<svg xmlns="http://www.w3.org/2000/svg" width="62" height="18" viewBox="0 0 62 18">
  <g id="グループ_1" data-name="グループ 1" transform="translate(-1353 748)">
    <g id="Frame_85" data-name="Frame 85" transform="translate(1353 -748)">
      <rect id="長方形_4" data-name="長方形 4" width="47" height="18" rx="9" fill="#07185c"/>
      <path id="パス_1" data-name="パス 1" d="M13.212,14V5.2H15.72a5.387,5.387,0,0,1,1.728.252,2.21,2.21,0,0,1,1.152.8,2.55,2.55,0,0,1,.408,1.524A2.653,2.653,0,0,1,18.6,9.308a2.471,2.471,0,0,1-1.14.9,4.6,4.6,0,0,1-1.692.288H14.316V14Zm1.1-4.4h1.308a2.808,2.808,0,0,0,1.716-.432,1.628,1.628,0,0,0,.564-1.38,1.421,1.421,0,0,0-.588-1.32,3.341,3.341,0,0,0-1.74-.36h-1.26Zm6.49,4.4V5.2H23a4.62,4.62,0,0,1,2.28.516A3.234,3.234,0,0,1,26.674,7.2a5.446,5.446,0,0,1,.468,2.376,5.576,5.576,0,0,1-.468,2.388,3.366,3.366,0,0,1-1.38,1.524A4.5,4.5,0,0,1,23.05,14Zm1.1-.912h1a3.3,3.3,0,0,0,1.716-.408,2.522,2.522,0,0,0,1.032-1.212A4.691,4.691,0,0,0,26,9.572a4.586,4.586,0,0,0-.348-1.9,2.408,2.408,0,0,0-1.032-1.164A3.3,3.3,0,0,0,22.906,6.1h-1ZM29.067,14V5.2h5.064V6.14h-3.96V9.116h3.36v.936h-3.36V14Z" fill="#fff"/>
    </g>
    <g id="open_in_new" transform="translate(1401 -746.6)">
      <path id="パス_2" data-name="パス 2" d="M3.211,11.343V4.6H2v8h9V11.343Z" fill="#07185c" fill-rule="evenodd"/>
      <path id="パス_3" data-name="パス 3" d="M5,2.6h9v6H5ZM6.311,3.739V7.46h6.379V3.739Z" fill="#07185c" fill-rule="evenodd"/>
    </g>
  </g>
</svg>
