<svg width="246" height="34" viewBox="0 0 246 34" fill="none" xmlns="http://www.w3.org/2000/svg">
<g clip-path="url(#clip0_8612_1988)">
<path d="M84.2559 9.25488C85.9364 9.25488 87.6644 9.57955 89.1504 10.293L88.5195 13.0342C87.1398 12.4328 85.9074 12.1731 84.7871 12.1318C83.3483 12.0906 81.9865 12.433 81.9629 13.4707C81.8983 14.8502 84.2215 15.304 86.2734 16.3594H86.2793C88.2604 17.3499 89.9464 18.6 89.752 21.082C89.5161 23.9947 87.2278 25.369 84.1025 25.3926C82.2688 25.4102 80.1817 25.0264 78.4541 24.2246L79.0791 21.5068C80.8893 22.2379 82.6408 22.4326 83.6963 22.4326C85.3116 22.4738 86.1781 21.784 86.2432 20.835C86.3257 19.3669 84.0203 18.9361 81.7324 17.751C80.0283 16.8902 78.4307 15.811 78.4307 13.5234C78.4307 10.4224 81.1898 9.27858 84.2559 9.25488ZM185.879 9.26074C190.407 9.26074 193.663 12.4091 193.663 17.3262C193.663 22.2435 190.413 25.3926 185.879 25.3926C181.345 25.3924 178.09 22.2433 178.09 17.3262C178.09 12.4092 181.351 9.26091 185.879 9.26074ZM231.879 9.26074C233.559 9.26074 235.287 9.58541 236.773 10.2988L236.148 13.0342C234.769 12.4328 233.542 12.1731 232.422 12.1318C230.977 12.0906 229.62 12.4389 229.597 13.4707C229.532 14.8501 231.867 15.3042 233.913 16.3594L233.896 16.3535C235.883 17.344 237.564 18.6 237.369 21.0762C237.133 23.9888 234.845 25.3749 231.714 25.3926C229.886 25.4161 227.793 25.0263 226.071 24.2305L226.696 21.5127C228.512 22.2437 230.258 22.4385 231.313 22.4385C232.935 22.4796 233.795 21.7898 233.86 20.8408C233.949 19.3727 231.637 18.9419 229.355 17.7568C227.651 16.896 226.054 15.817 226.054 13.5293C226.054 10.4282 228.819 9.28438 231.879 9.26074ZM31.3984 15.9053H32.8672L36.3398 9.56152H40.1143L35.7744 16.9609L35.5439 17.1973L35.7744 17.415L40.6152 25.0918H36.6885L32.8672 18.7061H31.3984V25.0918H27.9316V9.56152H31.3984V15.9053ZM57.4795 25.0918H53.7061L52.5615 21.6836H47.042L45.8984 25.0918H42.3779L48.0742 9.56152H51.7422L57.4795 25.0918ZM70.8945 19.2666L71.083 20.0215V9.56152H74.5625V25.0918H71.1953L64.5791 15.3867L64.3848 14.6738V25.0918H60.9053V11.7842L59.0537 11.2246V9.56152H64.2725L70.8945 19.2666ZM106.829 25.0918H103.055L101.911 21.6836H96.3916L95.248 25.0918H91.7334L97.4238 9.56152H101.091L106.829 25.0918ZM113.468 25.0918H109.995V9.56152H113.468V25.0918ZM136.453 25.0918H132.674L131.53 21.6836H126.011L124.86 25.0918H121.347L127.036 9.56152H130.716L136.453 25.0918ZM143.046 25.0918H139.573V9.56152H143.046V25.0918ZM154.945 9.56152C157.964 9.56158 159.798 11.6312 159.821 14.4141H159.815C159.815 16.2241 158.76 17.692 157.292 18.5352L160.547 25.0918H156.62L154.014 19.29H152.073V25.0918H148.601V11.8018L146.749 11.2246V9.56152H154.945ZM170.949 9.56152C173.968 9.56168 175.825 11.8314 175.825 14.6318C175.825 17.6092 173.968 19.7674 170.949 19.7676H168.166V25.0918H164.692V11.8076L162.841 11.2246V9.56152H170.949ZM203.952 9.56152C206.971 9.56152 208.806 11.6311 208.829 14.4141C208.829 16.2239 207.774 17.692 206.306 18.5352L209.561 25.0918H205.633L203.021 19.29H201.081V25.0918H197.607V11.8018L195.756 11.2246V9.56152H203.952ZM223.972 12.3447H219.437V25.0918H215.97V12.3447H211.411V9.56152H223.972V12.3447ZM185.879 12.1025C183.403 12.1027 181.651 13.8538 181.651 17.3262C181.651 20.7988 183.397 22.5448 185.879 22.5449C188.355 22.5449 190.107 20.8048 190.107 17.3262C190.107 13.8478 188.355 12.1025 185.879 12.1025ZM49.6904 13.8125L47.9863 18.8828H51.6357L49.9258 13.8359L49.7959 12.9277L49.6904 13.8125ZM99.0391 13.8125L97.335 18.8828H100.974L99.2695 13.8359L99.1455 12.9277L99.0391 13.8125ZM128.652 13.8125L126.948 18.8828H130.592L128.888 13.8359L128.759 12.9277L128.652 13.8125ZM168.172 16.9785H169.917V16.9844C171.468 16.9844 172.287 16.2473 172.287 14.6318C172.287 13.099 171.45 12.3447 169.917 12.3447H168.172V16.9785ZM152.079 16.7256H153.913V16.7314C155.464 16.7314 156.284 16.0589 156.284 14.4199C156.284 12.9105 155.44 12.3506 153.913 12.3506H152.079V16.7256ZM201.081 16.7256H202.915V16.7314C204.471 16.7313 205.291 16.0588 205.291 14.4199C205.291 12.9107 204.442 12.3507 202.915 12.3506H201.081V16.7256Z" fill="#08185C"/>
<path d="M20.2886 19.579L15.4003 13.6948C15.4003 13.6948 15.4003 13.6889 15.3944 13.683C14.6927 12.8339 13.6313 12.2915 12.4461 12.2915C10.3292 12.2915 8.61328 14.0072 8.61328 16.1239C8.61328 17.0555 8.94349 17.9104 9.49778 18.5708L14.3979 24.4727C15.7541 26.1 18.1717 26.324 19.7992 24.9738C21.4267 23.6178 21.6508 21.2004 20.3004 19.5731" fill="#EC008C"/>
<path d="M22.3466 10.2688C21.2675 8.44698 18.9147 7.83969 17.0927 8.91866L10.4943 12.8218C9.36805 13.4881 8.61328 14.7203 8.61328 16.1236C8.61328 18.2403 10.3292 19.9619 12.4461 19.9619C13.1832 19.9619 13.8672 19.7555 14.451 19.3959L21.0021 15.5222C22.8301 14.4432 23.4316 12.0907 22.3525 10.2688" fill="#00C0F3"/>
<path d="M15.4063 13.6889C14.7046 12.8339 13.6373 12.2915 12.4402 12.2915C10.3233 12.2915 8.60742 14.0072 8.60742 16.1239C8.60742 18.2406 10.3233 19.9563 12.4402 19.9563C13.1773 19.9563 13.8613 19.75 14.4451 19.3903L18.2661 17.1321L15.4063 13.6889Z" fill="#08185C"/>
<path d="M14.8112 16.1236C14.8112 17.4325 13.7498 18.4938 12.4407 18.4938C11.1317 18.4938 10.0762 17.4325 10.0762 16.1236C10.0762 14.8147 11.1376 13.7534 12.4407 13.7534C13.7439 13.7534 14.8112 14.8147 14.8112 16.1236Z" fill="white"/>
</g>
<defs>
<clipPath id="clip0_8612_1988">
<rect width="244.316" height="33" fill="white" transform="translate(0.841797 0.62793)"/>
</clipPath>
</defs>
</svg>
