<?xml version="1.0" encoding="UTF-8"?>
<svg id="_レイヤー_1" data-name="レイヤー_1" xmlns="http://www.w3.org/2000/svg" version="1.1" viewBox="0 0 241 80">
  <!-- Generator: Adobe Illustrator 29.6.0, SVG Export Plug-In . SVG Version: 2.1.1 Build 207)  -->
  <defs>
    <style>
      .st0 {
        fill: #00125e;
      }

      .st1 {
        fill: #e4007f;
      }

      .st2 {
        fill: #fff;
      }

      .st3 {
        fill: #00b9ef;
      }
    </style>
  </defs>
  <path class="st2" d="M39,47.6h-4l-3.9-6.5h-1.5v6.5h-3.6v-15.9h3.6v6.5h1.5l3.6-6.5h3.9l-4.4,7.6-.2.2.2.2,4.9,7.9Z"/>
  <path class="st2" d="M51.2,44.1h-5.6l-1.2,3.5h-3.6l5.8-15.9h3.7l5.9,15.9h-3.9l-1.2-3.5ZM50.2,41.3l-1.7-5.2v-.9c-.1,0-.2.9-.2.9l-1.7,5.2h3.7Z"/>
  <path class="st2" d="M73.7,31.8v15.9h-3.4l-6.8-9.9-.2-.7v10.7h-3.6v-13.6l-1.9-.6v-1.7h5.3l6.8,9.9.2.8v-10.7h3.5Z"/>
  <path class="st2" d="M88.1,35.3c-1.4-.6-2.8-.9-4-.9-1.5,0-2.9.3-2.9,1.4,0,1.4,2.3,1.9,4.4,3,2,1,3.9,2.3,3.7,4.8-.2,3-2.7,4.4-5.9,4.4-1.9,0-4-.4-5.8-1.2l.6-2.8c1.8.7,3.6,1,4.7,1,1.7,0,2.5-.7,2.6-1.6,0-1.5-2.3-1.9-4.6-3.1-1.7-.9-3.4-2-3.4-4.3s2.8-4.3,6-4.4c1.7,0,3.6.3,5.2,1.1l-.6,2.8h0s0,0,0,0Z"/>
  <path class="st2" d="M101.8,44.1h-5.7l-1.2,3.5h-3.6l5.8-15.9h3.7l5.9,15.9h-3.9l-1.2-3.5ZM100.8,41.3l-1.7-5.2v-.9c-.1,0-.2.9-.2.9l-1.7,5.2h3.7Z"/>
  <path class="st2" d="M113.6,31.8h-3.6v15.9h3.6v-15.9Z"/>
  <path class="st2" d="M132.1,44.1h-5.6l-1.2,3.5h-3.6l5.8-15.9h3.7l5.9,15.9h-3.9l-1.2-3.5h0ZM131.1,41.3l-1.7-5.2v-.9c-.1,0-.2.9-.2.9l-1.7,5.2h3.7Z"/>
  <path class="st2" d="M143.9,31.8h-3.6v15.9h3.6v-15.9Z"/>
  <path class="st2" d="M155.1,41.7h-2v5.9h-3.6v-13.6l-1.9-.6v-1.7h8.4c3.1,0,5,2.1,5,5,0,1.9-1.1,3.4-2.6,4.2l3.3,6.7h-4l-2.7-5.9h0ZM153.1,39.1h1.9c1.6,0,2.4-.7,2.4-2.4s-.9-2.1-2.4-2.1h-1.9v4.5Z"/>
  <path class="st2" d="M177.4,36.9c0,3-1.9,5.3-5,5.3h-2.9v5.4h-3.6v-13.6l-1.9-.6v-1.7h8.3c3.1,0,5,2.3,5,5.2ZM173.8,36.9c0-1.6-.9-2.3-2.4-2.3h-1.8v4.7h1.8c1.6,0,2.4-.7,2.4-2.4Z"/>
  <path class="st2" d="M179.7,39.7c0-5,3.3-8.2,8-8.2s8,3.2,8,8.2-3.3,8.2-8,8.2-8-3.2-8-8.2ZM192,39.7c0-3.6-1.8-5.3-4.3-5.3s-4.3,1.8-4.3,5.3,1.8,5.3,4.3,5.3,4.3-1.8,4.3-5.3Z"/>
  <path class="st2" d="M205.2,41.7h-2v5.9h-3.6v-13.6l-1.9-.6v-1.7h8.4c3.1,0,5,2.1,5,5,0,1.9-1.1,3.4-2.6,4.2l3.3,6.7h-4l-2.7-5.9h0ZM203.2,39.1h1.9c1.6,0,2.4-.7,2.4-2.4s-.9-2.1-2.4-2.1h-1.9v4.5Z"/>
  <path class="st2" d="M226.6,34.6h-4.6v13h-3.6v-13h-4.6v-2.9h12.8v2.9Z"/>
  <path class="st2" d="M239.1,35.3c-1.4-.6-2.7-.9-3.8-.9-1.5,0-2.9.3-2.9,1.4,0,1.4,2.3,1.9,4.4,3,2,1,3.7,2.3,3.6,4.8-.2,3-2.6,4.4-5.8,4.4-1.9,0-4-.4-5.8-1.2l.6-2.8c1.8.7,3.6,1,4.7,1,1.7,0,2.5-.7,2.6-1.6,0-1.5-2.3-1.9-4.6-3.2-1.7-.9-3.4-2-3.4-4.3s2.8-4.3,6-4.4c1.7,0,3.5.3,5,1.1l-.6,2.8h0Z"/>
  <path class="st2" d="M21,29.8c-1.7-3-5.6-3.9-8.5-2.2l-9,5.3s0,0-.1,0c-.1,0-.3.2-.4.3,0,0-.1,0-.2.1-.2.2-.4.3-.5.5,0,0,0,0,0,0-.2.2-.3.3-.4.5,0,0,0,0,0,.1-.1.2-.3.4-.4.6,0,0,0,0,0,0-.2.4-.4.9-.6,1.4,0,0,0,0,0,.1,0,.2,0,.4-.1.6,0,0,0,.1,0,.2,0,.2,0,.5,0,.8s0,.7,0,1c0,0,0,0,0,.1,0,.3.1.6.2.9,0,0,0,0,0,.1.1.3.2.6.4.8,0,0,0,0,0,.1.2.3.3.5.5.8,0,0,0,0,0,0l6.7,8c1.2,1.5,3,2.2,4.8,2.2s2.8-.5,4-1.4c2.6-2.2,3-6.1.8-8.8l-2-2.4,2.7-1.6c3-1.7,3.9-5.6,2.2-8.5"/>
  <path class="st1" d="M17.3,43l-6.7-8c-1-1.2-2.4-1.9-4-1.9-2.9,0-5.2,2.3-5.2,5.2s.4,2.4,1.2,3.3l6.7,8c1.8,2.2,5.1,2.5,7.4.7,2.2-1.8,2.5-5.1.7-7.4"/>
  <path class="st3" d="M20.1,30.3c-1.5-2.5-4.7-3.3-7.2-1.8l-9,5.3c-1.5.9-2.6,2.6-2.6,4.5,0,2.9,2.3,5.2,5.2,5.2s1.9-.3,2.7-.8l8.9-5.3c2.5-1.5,3.3-4.7,1.8-7.2Z"/>
  <path class="st0" d="M10.6,35c-1-1.2-2.4-1.9-4-1.9-2.9,0-5.2,2.3-5.2,5.2s2.3,5.2,5.2,5.2,1.9-.3,2.7-.8l5.2-3.1-3.9-4.7Z"/>
  <path class="st2" d="M9.8,38.3c0,1.8-1.5,3.2-3.2,3.2s-3.2-1.5-3.2-3.2,1.5-3.2,3.2-3.2,3.2,1.5,3.2,3.2Z"/>
</svg>