<svg width="327" height="65" viewBox="0 0 327 65" fill="none" xmlns="http://www.w3.org/2000/svg">
<path d="M31.2285 62.4568C26.7269 62.4568 22.4975 60.4782 19.629 57.013L3.47565 37.562C3.40237 37.4678 3.31862 37.3631 3.23487 37.2584L3.16158 37.1747C3.16158 37.1747 3.0883 37.0804 3.0569 37.0386C2.98361 36.9339 2.89986 36.8292 2.82658 36.7245L2.78471 36.6722C2.74283 36.6093 2.69049 36.5465 2.64861 36.4837C2.5858 36.379 2.50205 36.2743 2.43924 36.1592C2.38689 36.0754 2.33455 35.9917 2.2822 35.9184C2.20892 35.8033 2.14611 35.6986 2.0833 35.5939C2.03095 35.5101 1.97861 35.4159 1.92626 35.3217C1.87392 35.217 1.81111 35.1123 1.74829 34.9972C1.70642 34.9134 1.66454 34.8297 1.6122 34.7354L1.58079 34.6622C1.52845 34.5679 1.48657 34.4737 1.4447 34.3795C1.40282 34.2957 1.36095 34.212 1.32954 34.1178L1.26673 33.9922C1.22485 33.9189 1.19345 33.8351 1.16204 33.7514C1.07829 33.5525 0.994538 33.3431 0.921256 33.1442C0.88985 33.0814 0.879381 33.0081 0.847975 32.9453L0.827037 32.8929C0.785162 32.7568 0.732818 32.6207 0.690942 32.4846C0.670005 32.4114 0.649067 32.3381 0.628129 32.2543L0.607192 32.1915C0.565316 32.0659 0.53391 31.9298 0.492035 31.8042C0.471097 31.71 0.450159 31.6262 0.429222 31.5425V31.5006C0.387346 31.375 0.35594 31.2389 0.324533 31.1132C0.303596 31.0085 0.282658 30.9039 0.261721 30.8096C0.240783 30.6735 0.219845 30.5375 0.188439 30.4014C0.17797 30.2967 0.157032 30.2024 0.146564 30.0978C0.125626 29.9512 0.104688 29.8151 0.0942194 29.6685V29.6267C0.0732818 29.5429 0.0628129 29.4696 0.0628129 29.3859C0.0418753 29.2289 0.0418753 29.0718 0.0209376 28.9043V28.852C0.0209376 28.7892 0.0209376 28.7264 0.0209376 28.6635C0.0209376 28.4228 0 28.182 0 27.9412C0 27.6585 0 27.3549 0.0314065 27.0095C0.0314065 26.9362 0.0314065 26.8629 0.0523441 26.7896V26.7373C0.0732818 26.5174 0.0942194 26.2871 0.125626 26.0673V26.0254C0.125626 25.9521 0.146563 25.8788 0.157032 25.7951C0.198908 25.4915 0.251252 25.2088 0.293127 24.9576V24.9262C0.35594 24.6331 0.418753 24.3399 0.512972 24.0259C0.53391 23.9631 0.544379 23.9107 0.565316 23.8479V23.7956C0.649067 23.5652 0.71188 23.3454 0.785162 23.136L0.858443 22.9162C1.05735 22.3509 1.28767 21.796 1.55985 21.2621L1.6436 21.1051C1.75876 20.8852 1.87392 20.6654 1.99954 20.456L2.09376 20.299C2.39736 19.7755 2.74283 19.2626 3.10924 18.7915L3.16158 18.7182C3.33955 18.4983 3.50706 18.2785 3.69549 18.0691L3.76878 17.9854C4.17706 17.5143 4.62722 17.0746 5.07738 16.6663C5.07738 16.6663 5.08785 16.6558 5.09832 16.6454C5.31816 16.4569 5.54848 16.258 5.78926 16.0696L5.8416 16.0277C6.32317 15.6613 6.82567 15.3158 7.33864 15.0122C7.35958 14.9913 7.39099 14.9808 7.41193 14.9704L29.1661 2.09376C31.4902 0.722346 34.1388 0 36.8293 0C42.137 0 47.1097 2.83704 49.8107 7.40143C51.8625 10.8666 52.4383 14.918 51.4333 18.8124C50.4283 22.7068 47.9681 25.9835 44.5134 28.0354L37.9599 31.9193L42.8279 37.7819C48.1356 44.1783 47.2563 53.6944 40.8598 58.9916C38.1589 61.2319 34.746 62.4673 31.2494 62.4673" fill="white"/>
<path d="M40.9454 39.3208L24.8339 19.9117C24.8339 19.9117 24.813 19.8907 24.813 19.8803H24.8025C22.4889 17.0746 18.9923 15.2949 15.077 15.2949C8.09429 15.2949 2.43066 20.9585 2.43066 27.9412C2.43066 31.0086 3.52989 33.8247 5.35146 36.0127L21.5048 55.4637C25.9646 60.8342 33.9313 61.5775 39.3123 57.1178C44.6828 52.658 45.4261 44.6808 40.9664 39.3103" fill="#EC008C"/>
<path d="M47.7188 8.62645C44.1594 2.61736 36.4125 0.62829 30.4034 4.17721L8.63868 17.0434C4.92224 19.2418 2.43066 23.2932 2.43066 27.9309C2.43066 34.9136 8.0943 40.5667 15.077 40.5667C17.4953 40.5667 19.7566 39.8863 21.6828 38.7033L43.2905 25.9314C49.2996 22.372 51.2887 14.6251 47.7397 8.61598" fill="#00C0F3"/>
<path d="M24.8317 19.9117C22.5076 17.0956 19.0006 15.2949 15.0643 15.2949C8.0816 15.2949 2.41797 20.9585 2.41797 27.9412C2.41797 34.9239 8.0816 40.5771 15.0643 40.5771C17.4826 40.5771 19.7439 39.8966 21.6701 38.7136L34.2746 31.2598L24.8422 19.9012L24.8317 19.9117Z" fill="#08185C"/>
<path d="M22.8744 27.942C22.8744 32.2552 19.3778 35.7518 15.0646 35.7518C10.7515 35.7518 7.25488 32.2552 7.25488 27.942C7.25488 23.6289 10.7515 20.1323 15.0646 20.1323C19.3778 20.1323 22.8744 23.6289 22.8744 27.942Z" fill="white"/>
<path d="M78.8111 24.9472H73.8698L69.0541 16.8967H67.2012V24.9472H62.8252V5.37061H67.2012V13.3583H69.0541L73.4301 5.37061H78.1934L72.7182 14.6983L72.4251 14.9914L72.7182 15.2636L78.8111 24.9472Z" fill="white"/>
<path d="M93.8736 20.655H86.9118L85.4671 24.9472H81.0283L88.2099 5.37061H92.8371L100.071 24.9472H95.3183L93.8736 20.655ZM92.701 17.1166L90.5549 10.7516L90.3874 9.61047L90.2513 10.7306L88.1052 17.1166H92.701Z" fill="white"/>
<path d="M121.608 5.37061V24.9472H117.357L109.014 12.7092L108.773 11.8089V24.9472H104.397V8.16577L102.052 7.46436V5.37061H108.637L116.98 17.6086L117.221 18.5508V5.37061H121.608Z" fill="white"/>
<path d="M139.194 9.74648C137.457 8.98226 135.907 8.65773 134.494 8.60539C132.672 8.55304 130.956 8.98226 130.935 10.2909C130.861 12.0287 133.793 12.6045 136.378 13.934C138.88 15.1798 140.995 16.7606 140.754 19.8907C140.461 23.5653 137.572 25.3031 133.636 25.324C131.322 25.345 128.684 24.8634 126.506 23.8584L127.302 20.4351C129.584 21.3564 131.793 21.5972 133.123 21.5972C135.164 21.6495 136.242 20.7806 136.326 19.5871C136.431 17.7446 133.531 17.2003 130.641 15.7032C128.495 14.6145 126.485 13.2535 126.485 10.3746C126.485 6.45928 129.961 5.01459 133.824 4.99365C135.949 4.99365 138.116 5.40194 139.99 6.30225L139.194 9.74648Z" fill="white"/>
<path d="M156.08 20.655H149.118L147.673 24.9472H143.245L150.416 5.37061H155.043L162.277 24.9472H157.525L156.08 20.655ZM154.907 17.1166L152.761 10.7516L152.604 9.61047L152.468 10.7306L150.322 17.1166H154.918H154.907Z" fill="white"/>
<path d="M170.639 5.37061H166.263V24.9472H170.639V5.37061Z" fill="white"/>
<path d="M193.403 20.6443H186.441L184.997 24.9365H180.568L187.739 5.35986H192.367L199.59 24.9365H194.837L193.393 20.6443H193.403ZM192.231 17.1163L190.085 10.7513L189.917 9.61019L189.781 10.7304L187.635 17.1163H192.231Z" fill="white"/>
<path d="M207.923 5.37061H203.547V24.9472H207.923V5.37061Z" fill="white"/>
<path d="M221.75 17.6296H219.3V24.9472H214.924V8.19718L212.59 7.46436V5.37061H222.923C226.723 5.37061 229.036 7.97733 229.068 11.4844C229.068 13.7666 227.738 15.6196 225.885 16.6769L229.989 24.9368H225.037L221.75 17.6191V17.6296ZM219.311 14.3947H221.624C223.582 14.3947 224.619 13.5572 224.619 11.4844C224.619 9.58953 223.561 8.87765 221.624 8.87765H219.311V14.3947Z" fill="white"/>
<path d="M249.243 11.7566C249.243 15.5044 246.908 18.2263 243.097 18.2263H239.59V24.9368H235.214V8.19718L232.88 7.46436V5.37061H243.108C246.908 5.37061 249.253 8.22858 249.253 11.7566M244.783 11.7566C244.783 9.83031 243.715 8.87765 241.789 8.87765H239.59V14.7192H241.789C243.747 14.7192 244.783 13.798 244.783 11.7566Z" fill="white"/>
<path d="M252.102 15.1588C252.102 8.96132 256.205 4.99365 261.911 4.99365C267.616 4.99365 271.731 8.96132 271.731 15.1588C271.731 21.3564 267.627 25.324 261.911 25.324C256.195 25.324 252.102 21.3564 252.102 15.1588ZM267.239 15.1588C267.239 10.7829 265.041 8.57398 261.911 8.57398C258.781 8.57398 256.582 10.7724 256.582 15.1588C256.582 19.5453 258.781 21.7332 261.911 21.7332C265.041 21.7332 267.239 19.5348 267.239 15.1588Z" fill="white"/>
<path d="M283.516 17.6296H281.067V24.9472H276.68V8.19718L274.346 7.46436V5.37061H284.678C288.489 5.37061 290.792 7.97733 290.824 11.4844C290.824 13.7666 289.494 15.6196 287.641 16.6769L291.745 24.9368H286.793L283.506 17.6191H283.516V17.6296ZM281.077 14.3947H283.391C285.348 14.3947 286.385 13.5572 286.385 11.4844C286.385 9.58953 285.327 8.87765 283.391 8.87765H281.077V14.3947Z" fill="white"/>
<path d="M309.921 8.87765H304.215V24.9472H299.839V8.87765H294.103V5.37061H309.921V8.87765Z" fill="white"/>
<path d="M325.278 9.74648C323.541 8.98226 321.991 8.65773 320.578 8.60538C318.756 8.55304 317.04 8.98226 317.019 10.2909C316.935 12.0287 319.877 12.6045 322.452 13.934C324.954 15.1798 327.079 16.7606 326.828 19.8803C326.535 23.5548 323.645 25.2926 319.709 25.324C317.406 25.3554 314.768 24.8634 312.59 23.8584L313.386 20.4246C315.668 21.3459 317.867 21.5971 319.207 21.5971C321.248 21.6495 322.326 20.7806 322.41 19.5871C322.515 17.7342 319.604 17.1898 316.725 15.7032C314.579 14.6145 312.569 13.2535 312.569 10.3746C312.569 6.45928 316.055 5.01459 319.908 4.99365C322.033 4.99365 324.2 5.40193 326.074 6.30225L325.289 9.75695H325.278V9.74648Z" fill="white"/>
<path d="M64.798 40.9965C66.4939 39.0807 68.975 38.1176 72.2308 38.0967C75.4657 38.1386 77.9468 39.1122 79.6637 41.0175C81.3806 42.9123 82.239 45.4353 82.239 48.5969C82.2181 51.7375 81.3701 54.271 79.6951 56.2077C77.9782 58.1758 75.4867 59.1808 72.2308 59.2227C68.9541 59.1808 66.473 58.1863 64.798 56.2391C63.0811 54.3233 62.2227 51.7794 62.2227 48.6073C62.2227 45.4353 63.0811 42.8914 64.798 40.9965ZM67.813 53.6638C68.7133 55.1817 70.179 55.9669 72.2308 56.0088C73.2882 56.0088 74.178 55.7889 74.9213 55.3597C75.6646 54.9305 76.2509 54.3652 76.6801 53.6638C77.5385 52.1981 77.9678 50.5127 77.9678 48.6073C77.9678 46.702 77.5281 45.048 76.6487 43.6033C75.7274 42.1167 74.2618 41.3629 72.2308 41.3211C70.2208 41.3629 68.7657 42.1167 67.8758 43.6033C66.9546 45.048 66.5044 46.7125 66.5044 48.6073C66.4835 50.5231 66.9232 52.2086 67.8235 53.6638" fill="white"/>
<path d="M85.6348 43.8017H89.3826V45.9374H89.4454C90.2829 44.3356 91.8428 43.5086 94.125 43.4458C96.4072 43.4877 98.0508 44.2624 99.0453 45.7908C99.998 47.3088 100.469 49.1408 100.448 51.2869C100.469 53.4121 99.998 55.2441 99.0453 56.783C98.0508 58.3638 96.3862 59.1699 94.0412 59.2118C93.2247 59.2118 92.4604 59.0652 91.759 58.7721C91.0367 58.479 90.3248 57.9346 89.6234 57.1285H89.5606V65.001H85.6348V43.7913V43.8017ZM90.3981 48.1044C89.8537 49.0989 89.5815 50.1668 89.5815 51.2974C89.5606 52.428 89.8223 53.5063 90.3667 54.5113C90.6389 54.9824 90.9948 55.3697 91.424 55.6838C91.8532 56.0188 92.3872 56.1758 93.0362 56.1758C93.6853 56.1758 94.2297 56.0083 94.6694 55.6838C95.0986 55.3697 95.4336 54.9824 95.6639 54.5113C95.9151 53.9983 96.1036 53.4644 96.2187 52.8991C96.292 52.3338 96.3339 51.7999 96.3339 51.2869C96.3339 50.1982 96.1141 49.1304 95.6953 48.0939C95.465 47.6124 95.13 47.2146 94.7008 46.9214C94.2715 46.6283 93.7376 46.4818 93.0886 46.4818C91.8428 46.5236 90.9425 47.0575 90.3981 48.0939" fill="white"/>
<path d="M115.598 58.0496C114.216 58.8347 112.488 59.2221 110.416 59.2221C105.223 59.1488 102.606 56.542 102.543 51.4123C102.543 49.172 103.129 47.2876 104.302 45.7697C105.474 44.2726 107.212 43.4979 109.536 43.4561C112.289 43.477 114.184 44.325 115.242 46C116.236 47.675 116.728 49.863 116.707 52.5534H106.291C106.385 53.7678 106.825 54.6891 107.61 55.3277C108.395 56.0081 109.39 56.3536 110.593 56.3536C111.546 56.3536 112.446 56.1966 113.284 55.8825C114.101 55.6103 114.875 55.2544 115.598 54.8252V58.0391V58.0496ZM112.959 49.863C112.918 48.8684 112.656 48.0414 112.174 47.3714C111.672 46.6909 110.866 46.335 109.777 46.314C108.699 46.335 107.872 46.6595 107.285 47.3086C106.699 47.9681 106.364 48.8161 106.291 49.8525H112.959V49.863Z" fill="white"/>
<path d="M119.868 43.8017H123.354V47.225H123.417C123.532 46.4399 123.961 45.6338 124.705 44.7963C125.427 43.9378 126.369 43.4877 127.542 43.4458C127.929 43.4458 128.337 43.4877 128.746 43.561V47.5077C128.337 47.2983 127.751 47.1832 126.987 47.1832C126.223 47.1832 125.605 47.403 125.176 47.8218C124.747 48.23 124.422 48.7639 124.213 49.434C124.014 50.0621 123.899 50.7216 123.867 51.423C123.825 52.1035 123.804 52.7421 123.804 53.3283V58.8559H119.889V43.7913H119.868V43.8017Z" fill="white"/>
<path d="M131.833 44.5966C133.508 43.8533 135.256 43.4764 137.067 43.4555C141.454 43.3926 143.621 45.5178 143.569 49.81V51.7363C143.569 53.2019 143.59 54.4581 143.621 55.5155C143.663 56.6252 143.715 57.7453 143.799 58.876H140.344C140.229 57.9547 140.166 57.2114 140.166 56.6252H140.103C139.632 57.4418 138.983 58.0803 138.146 58.5305C137.287 59.0016 136.387 59.2319 135.455 59.2319C134.094 59.211 132.89 58.8236 131.854 58.0594C130.765 57.2952 130.2 56.196 130.189 54.7513C130.189 53.6206 130.441 52.6994 130.954 51.998C131.425 51.2966 132.021 50.7731 132.765 50.4486C133.539 50.0822 134.377 49.8309 135.256 49.7158C136.157 49.6216 137.015 49.5692 137.832 49.5692H139.999C139.999 48.3653 139.727 47.5069 139.182 47.0253C138.638 46.5542 137.779 46.3239 136.607 46.3239C134.89 46.3448 133.341 46.8892 131.959 47.9675L131.844 44.607H131.833V44.5966ZM134.67 55.8819C135.12 56.196 135.707 56.353 136.429 56.353C137.633 56.3321 138.554 55.8819 139.182 55.0025C139.747 54.1231 140.02 53.0867 139.999 51.9038H137.633C137.402 51.9038 137.162 51.9247 136.931 51.9666C136.429 52.0294 135.947 52.1445 135.497 52.312C135.047 52.49 134.691 52.7517 134.408 53.0972C134.094 53.4531 133.937 53.9138 133.937 54.5C133.937 55.1282 134.178 55.5783 134.67 55.8714" fill="white"/>
<path d="M148.708 46.6729H145.809V43.8045H148.708V40.7895L152.624 39.5332V43.8045H156.099V46.6729H152.624V53.6975C152.603 54.357 152.728 54.9223 153.001 55.3934C153.252 55.9064 153.744 56.1681 154.466 56.1786C155.21 56.1786 155.806 56.0425 156.256 55.7703L156.372 58.8691C155.597 59.0994 154.623 59.2145 153.472 59.2145C150.31 59.1412 148.719 57.5081 148.698 54.3256V46.6624L148.708 46.6729Z" fill="white"/>
<path d="M158.897 37.3115H162.813V41.0594H158.897V37.3115ZM158.897 43.8022H162.813V58.8668H158.897V43.8022Z" fill="white"/>
<path d="M168.254 45.5603C169.72 44.1784 171.583 43.477 173.845 43.4561C176.148 43.477 178.032 44.1784 179.498 45.5603C180.974 46.9631 181.728 48.9208 181.748 51.4437C181.748 53.6527 181.068 55.4847 179.697 56.9399C178.336 58.4264 176.378 59.1802 173.845 59.2221C171.342 59.1802 169.416 58.4264 168.055 56.9399C166.673 55.4742 165.982 53.6422 165.982 51.4437C166.003 48.9312 166.757 46.9631 168.265 45.5603M170.128 51.852C170.17 52.187 170.212 52.5011 170.275 52.7838C170.39 53.4119 170.589 53.9772 170.861 54.4797C171.154 54.9822 171.541 55.3905 172.033 55.6731C172.504 56.0081 173.101 56.1652 173.845 56.1652C174.588 56.1652 175.237 56.0081 175.75 55.6941C176.242 55.401 176.629 55.0031 176.922 54.5006C177.215 53.9877 177.404 53.4223 177.509 52.8047C177.603 52.1975 177.655 51.5903 177.655 50.9622C177.655 49.7583 177.352 48.7114 176.744 47.832C176.106 46.9526 175.132 46.5025 173.845 46.4815C172.599 46.5025 171.657 46.9631 171.039 47.8529C170.4 48.7323 170.076 49.7687 170.076 50.9517C170.076 51.2448 170.097 51.538 170.139 51.8311" fill="white"/>
<path d="M184.816 43.8019H188.533V45.8538H188.596C189.841 44.2311 191.496 43.4355 193.537 43.4565C195.317 43.4774 196.625 44.0322 197.463 45.121C198.258 46.2097 198.667 47.623 198.667 49.3609V58.8665H194.741V50.816C194.741 50.324 194.741 49.832 194.709 49.319C194.689 48.8165 194.594 48.3559 194.416 47.9476C194.28 47.4974 194.039 47.1415 193.683 46.8693C193.307 46.618 192.815 46.4924 192.186 46.4924C191.485 46.4924 190.92 46.6599 190.491 46.9949C190.061 47.3299 189.705 47.7487 189.433 48.2512C189.182 48.7641 189.004 49.298 188.91 49.8634C188.795 50.4496 188.732 50.994 188.732 51.507V58.877H184.816V43.8124V43.8019Z" fill="white"/>
<path d="M217.99 41.3211C217.634 41.3211 217.289 41.3629 216.933 41.4362C216.556 41.5095 216.211 41.6561 215.876 41.8759C215.562 42.0748 215.3 42.3679 215.09 42.7553C214.871 43.1217 214.766 43.5928 214.766 44.1581C214.766 44.5873 214.902 44.9537 215.174 45.2364C215.446 45.5295 215.792 45.7912 216.2 46.0216C216.65 46.2519 217.132 46.4717 217.666 46.6706C218.168 46.88 218.713 47.1103 219.278 47.3406C219.843 47.5605 220.388 47.8117 220.922 48.1048C221.466 48.4189 221.948 48.7958 222.356 49.2459C222.764 49.6752 223.11 50.1881 223.382 50.7953C223.612 51.4234 223.738 52.1667 223.738 53.0461C223.696 55.255 222.953 56.8358 221.487 57.7885C220.021 58.7411 218.221 59.2227 216.075 59.2227C215.017 59.2227 214.138 59.1494 213.415 58.9924C212.672 58.8563 211.814 58.6678 210.84 58.4375L211.217 54.7525C212.662 55.5691 214.201 55.9878 215.844 56.0088C216.682 56.0088 217.488 55.7889 218.273 55.3597C219.048 54.9305 219.456 54.271 219.477 53.3706C219.477 52.8786 219.362 52.4599 219.121 52.1144C218.849 51.7584 218.503 51.4758 218.095 51.235C217.195 50.7639 216.179 50.3138 215.028 49.8845C214.462 49.6542 213.928 49.382 213.415 49.068C212.892 48.7748 212.4 48.4294 211.95 48.0106C211.542 47.5814 211.196 47.0684 210.924 46.4612C210.652 45.8541 210.516 45.1422 210.516 44.3256C210.558 42.0644 211.311 40.4417 212.766 39.4681C214.169 38.5468 215.802 38.0967 217.655 38.0967C219.508 38.0967 221.037 38.3375 222.544 38.8295L222.167 42.19C220.859 41.6247 219.477 41.3315 218.011 41.3106" fill="white"/>
<path d="M239.181 58.0496C237.799 58.8347 236.071 59.2221 233.999 59.2221C228.806 59.1488 226.189 56.542 226.126 51.4123C226.126 49.172 226.712 47.2876 227.885 45.7697C229.057 44.2726 230.795 43.4979 233.119 43.4561C235.872 43.477 237.767 44.325 238.825 46C239.819 47.675 240.311 49.863 240.29 52.5534H229.874C229.968 53.7678 230.408 54.6891 231.193 55.3277C231.968 56.0081 232.973 56.3536 234.177 56.3536C235.129 56.3536 236.029 56.1966 236.867 55.8825C237.684 55.6103 238.458 55.2544 239.181 54.8252V58.0391V58.0496ZM236.542 49.863C236.501 48.8684 236.239 48.0414 235.757 47.3714C235.255 46.6909 234.449 46.335 233.36 46.314C232.292 46.335 231.455 46.6595 230.868 47.3086C230.282 47.9681 229.947 48.8161 229.874 49.8525H236.542V49.863Z" fill="white"/>
<path d="M243.45 43.8017H246.936V47.225H246.999C247.114 46.4399 247.543 45.6338 248.287 44.7963C249.009 43.9378 249.951 43.4877 251.124 43.4458C251.511 43.4458 251.919 43.4877 252.328 43.561V47.5077C251.919 47.2983 251.333 47.1832 250.569 47.1832C249.805 47.1832 249.187 47.403 248.758 47.8218C248.329 48.23 248.004 48.7639 247.795 49.434C247.596 50.0621 247.481 50.7216 247.449 51.423C247.407 52.1035 247.386 52.7421 247.386 53.3283V58.8559H243.471V43.7913H243.45V43.8017Z" fill="white"/>
<path d="M254.243 43.7998H258.462L262.199 54.7711H262.262L265.895 43.7998H269.81L264.251 58.8644H259.834L254.243 43.7998Z" fill="white"/>
<path d="M271.687 37.3115H275.602V41.0594H271.687V37.3115ZM271.687 43.8022H275.602V58.8668H271.687V43.8022Z" fill="white"/>
<path d="M288.918 47.0469C288.583 46.8689 288.217 46.7328 287.808 46.6386C287.379 46.5443 286.866 46.492 286.259 46.492C285.045 46.5129 284.092 46.9422 283.391 47.7797C282.647 48.6381 282.281 49.8001 282.281 51.2553C282.281 52.7105 282.626 53.8202 283.307 54.7414C283.966 55.6731 284.982 56.1547 286.353 56.1756C286.919 56.1756 287.484 56.0919 288.049 55.9139C288.594 55.7778 289.033 55.6313 289.368 55.4742L289.546 58.7196C289.002 58.8975 288.416 59.0127 287.787 59.0755C287.159 59.1697 286.437 59.2221 285.62 59.2221C283.16 59.2011 281.318 58.4369 280.093 56.9399C278.826 55.4742 278.188 53.5794 278.188 51.2658C278.188 48.9522 278.826 47.1725 280.093 45.7068C281.339 44.2203 283.139 43.477 285.474 43.4561C286.992 43.4561 288.259 43.6236 289.274 43.9481L288.918 47.0469Z" fill="white"/>
<path d="M304.224 58.0496C302.842 58.8347 301.114 59.2221 299.041 59.2221C293.849 59.1488 291.232 56.542 291.169 51.4123C291.169 49.172 291.755 47.2876 292.928 45.7697C294.1 44.2726 295.838 43.4979 298.162 43.4561C300.915 43.477 302.81 44.325 303.868 46C304.862 47.675 305.354 49.863 305.333 52.5534H294.917C295.011 53.7678 295.451 54.6891 296.236 55.3277C297.011 56.0081 298.016 56.3536 299.219 56.3536C300.172 56.3536 301.072 56.1966 301.91 55.8825C302.727 55.6103 303.501 55.2544 304.224 54.8252V58.0391V58.0496ZM301.585 49.863C301.544 48.8684 301.282 48.0414 300.8 47.3714C300.298 46.6909 299.492 46.335 298.403 46.314C297.335 46.335 296.498 46.6595 295.911 47.3086C295.325 47.9681 294.99 48.8161 294.917 49.8525H301.585V49.863Z" fill="white"/>
<path d="M317.364 46.9631C316.799 46.7537 316.254 46.5862 315.72 46.4711C315.197 46.3768 314.569 46.3245 313.846 46.3245C313.302 46.3245 312.789 46.4292 312.328 46.649C311.815 46.9003 311.554 47.3504 311.543 47.9995C311.564 48.5648 311.92 48.9626 312.622 49.193C312.957 49.3291 313.323 49.4547 313.731 49.5698C314.14 49.685 314.548 49.8211 314.956 49.9781C315.406 50.1142 315.835 50.2922 316.244 50.5016C316.631 50.7319 316.987 51.0041 317.301 51.3181C317.636 51.6531 317.898 52.0509 318.086 52.522C318.264 53.0141 318.348 53.6003 318.348 54.3017C318.306 56.0395 317.668 57.2958 316.422 58.081C315.176 58.8452 313.71 59.2221 312.035 59.2221C310.538 59.2011 309.052 58.9917 307.586 58.5835L307.816 55.3695C309.041 56.0291 310.329 56.3641 311.679 56.3641C312.224 56.3641 312.779 56.228 313.344 55.9558C313.93 55.7045 314.234 55.223 314.255 54.5216C314.255 54.1342 314.171 53.8097 313.993 53.5584C313.794 53.3281 313.532 53.1397 313.208 53.0036C312.527 52.7314 311.742 52.4802 310.863 52.2394C310.454 52.1033 310.046 51.9358 309.638 51.7369C309.23 51.538 308.863 51.2867 308.528 50.9726C308.193 50.6586 307.942 50.2712 307.764 49.8001C307.544 49.35 307.439 48.7951 307.439 48.1356C307.46 46.492 308.078 45.309 309.282 44.5657C310.413 43.8225 311.774 43.4561 313.354 43.4561C314.276 43.4561 315.071 43.5084 315.752 43.6026C316.411 43.7178 317.039 43.8539 317.626 44.0109L317.364 46.9631Z" fill="white"/>
</svg>
