<svg width="506" height="23" viewBox="0 0 506 23" fill="none" xmlns="http://www.w3.org/2000/svg">
<path d="M14.7149 14.5563L8.56537 7.18387C7.72194 6.31583 6.58321 5.79579 5.3745 5.72665C4.16578 5.65751 2.97512 6.04429 2.03809 6.81048C1.10106 7.57668 0.485926 8.66646 0.314391 9.86421C0.142856 11.062 0.427416 12.2804 1.11177 13.2785L7.28688 20.7659C8.11083 21.7503 9.29234 22.3673 10.5715 22.4812C11.8506 22.595 13.1226 22.1963 14.1076 21.3728C15.0926 20.5494 15.71 19.3686 15.8239 18.0902C15.9378 16.8119 15.5389 15.5407 14.7149 14.5563Z" fill="#E4007F"/>
<path d="M17.3113 2.87775C16.9895 2.33011 16.5625 1.85148 16.055 1.46938C15.5474 1.08729 14.9692 0.809272 14.3537 0.651335C13.7382 0.493397 13.0975 0.458656 12.4686 0.549109C11.8396 0.639562 11.2347 0.853424 10.6887 1.17839L2.37855 6.0848C1.48737 6.63214 0.797939 7.45369 0.413818 8.42603C0.0296969 9.39837 -0.0283812 10.469 0.248307 11.4772C0.524996 12.4853 1.12151 13.3765 1.94826 14.0169C2.77501 14.6574 3.78736 15.0124 4.83325 15.0288C5.73663 15.0406 6.62432 14.7922 7.39022 14.3133L15.6109 9.44518C16.7037 8.79589 17.4956 7.7414 17.8141 6.51134C18.1325 5.28127 17.9518 3.97527 17.3113 2.87775Z" fill="#00B9EF"/>
<path d="M8.56632 7.18316C8.04905 6.55413 7.38106 6.066 6.62442 5.76413C5.86779 5.46226 5.04707 5.35646 4.23855 5.45656C3.43004 5.55666 2.65997 5.85941 1.99991 6.33667C1.33985 6.81393 0.811236 7.45021 0.463193 8.18637C0.11515 8.92254 -0.0410235 9.73469 0.00918843 10.5473C0.0594003 11.36 0.314368 12.1468 0.750392 12.8345C1.18642 13.5223 1.78935 14.0888 2.50314 14.4813C3.21694 14.8737 4.01843 15.0795 4.83313 15.0794C5.73652 15.0912 6.6242 14.8428 7.39011 14.3639L12.1717 11.5274L8.56632 7.18316Z" fill="#00125E"/>
<path d="M7.81146 10.2496C7.81145 10.8415 7.63567 11.4201 7.30637 11.912C6.97707 12.404 6.50908 12.7872 5.96168 13.0131C5.41428 13.239 4.8121 13.2975 4.23143 13.1811C3.65076 13.0647 3.11772 12.7786 2.69984 12.3592C2.28196 11.9398 1.99805 11.4059 1.88406 10.8251C1.77007 10.2442 1.83115 9.64269 2.05954 9.09659C2.28793 8.5505 2.67337 8.08444 3.16703 7.75745C3.66068 7.43046 4.24034 7.25726 4.83258 7.25979C5.22485 7.25979 5.61326 7.33721 5.97551 7.48762C6.33776 7.63803 6.66671 7.85847 6.9435 8.13627C7.22028 8.41407 7.43944 8.74377 7.58838 9.10644C7.73733 9.46911 7.81314 9.85761 7.81146 10.2496Z" fill="white"/>
<path d="M24.3549 1.9834H32.8697V9.44523H26.848V21.5707H24.291L24.3549 1.9834ZM26.9119 3.81052V4.98602H30.4278V3.81052H26.9119ZM26.9119 6.46816V7.65643H30.4278V6.46816H26.9119ZM37.7535 20.523C36.1123 19.7426 34.7478 18.4814 33.8413 16.9071C32.7908 18.8288 31.0501 20.2808 28.9703 20.9702L27.5767 18.9003C29.0639 18.5446 30.4039 17.7365 31.4122 16.5876H28.0114V14.6966H32.3327C32.4399 14.2795 32.4872 13.8493 32.4733 13.4189H28.4461V11.5407H30.2488C30.1593 11.4129 29.6862 10.4035 29.5328 10.148L31.962 9.76466C32.233 10.337 32.4554 10.9311 32.6268 11.5407H34.8386C35.0508 10.9592 35.2301 10.3663 35.3755 9.76466L37.9325 10.0202C37.7592 10.5428 37.5455 11.0512 37.2933 11.5407H39.2493V13.4061H34.8386C34.8125 13.8353 34.757 14.2622 34.6724 14.6838H39.5306V16.5749H35.9764C36.8315 17.4337 37.8663 18.0926 39.0064 18.5042L38.7124 19.0025H39.9909C40.5918 19.0025 40.6301 18.8236 40.6301 18.287V9.44523H34.6468V1.9834H43.1743V19.2708C43.1743 20.7913 43.0081 21.5451 41.0264 21.5451H38.9297L38.3544 19.5647L37.7535 20.523ZM37.0759 3.81052V4.98602H40.6045V3.81052H37.0759ZM37.0759 6.46816V7.65643H40.6045V6.46816H37.0759Z" fill="#00125E"/>
<path d="M67.4537 4.46167H60.4092V7.09376H66.6994V21.008H48.0973V7.09376H53.4031V4.46167H47.3047V1.90625H67.4537V4.46167ZM50.8333 14.9261C52.3649 13.5316 53.2838 11.5893 53.3903 9.52141H50.7055V18.4654H64.0785V9.52141H60.4092V13.2779C60.4092 13.7506 60.4092 13.9167 60.8822 13.9167H61.3681C61.6493 13.9167 61.8411 13.8528 61.9306 13.444C62.0219 12.8387 62.0774 12.2286 62.0968 11.6169L64.0401 12.0002C63.8867 14.8111 63.5415 16.1655 62.0585 16.1655H59.885C58.7727 16.1655 57.9545 15.8972 57.9545 14.4661V9.52141H55.7683C55.6943 12.2825 54.5909 14.9164 52.6743 16.9066L50.8333 14.9261ZM57.9545 4.46167H55.8066V7.09376H57.9545V4.46167Z" fill="#00125E"/>
<path d="M82.2199 16.268H89.6991V19.0534H71.877V16.268H79.2666V6.64682H72.9509V3.84863H88.6252V6.64682H82.2327L82.2199 16.268Z" fill="#00125E"/>
<path d="M112.405 2.9541C111.676 8.40993 109.311 10.6204 105.923 12.5242L103.941 10.4287C107.355 8.85713 108.237 7.33665 108.8 5.70118H94.3145V2.9541H112.405ZM94.5062 18.2866C100.477 15.9229 101.103 11.8981 101.078 7.51553H104.044C103.941 12.4986 103.136 17.4178 96.3728 20.5993L94.5062 18.2866Z" fill="#00125E"/>
<path d="M115.576 17.6347C117.484 15.6363 118.593 13.0093 118.696 10.2495L121.355 10.5306C121.23 13.8859 119.983 17.1025 117.814 19.6662L115.576 17.6347ZM130.253 5.72641C129.814 5.19319 129.57 4.52597 129.563 3.83539C129.565 3.28673 129.719 2.74942 130.01 2.2838C130.3 1.81818 130.715 1.44268 131.207 1.19944C131.699 0.956205 132.249 0.85487 132.796 0.906812C133.342 0.958754 133.863 1.16192 134.301 1.49349C134.738 1.82507 135.075 2.27193 135.272 2.78391C135.469 3.29589 135.52 3.85272 135.418 4.39189C135.317 4.93106 135.067 5.43122 134.696 5.83623C134.326 6.24123 133.85 6.53505 133.322 6.68469V8.4096H126.303V20.5351H123.375V8.4096H116.267V5.72641H123.375V2.36603H126.303V5.72641H130.253ZM130.944 10.1856C131.232 12.9926 132.329 15.6557 134.101 17.8519L131.775 19.6662C129.844 17.3536 128.988 14.9643 128.348 10.5689L130.944 10.1856ZM130.944 3.79706C130.979 4.18119 131.156 4.53836 131.441 4.79843C131.726 5.0585 132.098 5.20269 132.484 5.20269C132.87 5.20269 133.242 5.0585 133.527 4.79843C133.812 4.53836 133.99 4.18119 134.025 3.79706C134.044 3.58309 134.019 3.36739 133.95 3.16374C133.882 2.96009 133.772 2.77295 133.627 2.61427C133.482 2.45559 133.305 2.32885 133.109 2.24213C132.912 2.15542 132.699 2.11063 132.484 2.11063C132.269 2.11063 132.057 2.15542 131.86 2.24213C131.663 2.32885 131.487 2.45559 131.342 2.61427C131.197 2.77295 131.087 2.96009 131.018 3.16374C130.949 3.36739 130.924 3.58309 130.944 3.79706Z" fill="#00125E"/>
<path d="M156.82 9.93066V12.9205H138.396V9.93066H156.82Z" fill="#00125E"/>
<path d="M173.326 14.8238C170.617 13.0094 167.709 11.5131 164.657 10.3646V20.5863H161.576V2.22559H164.657V7.33643C168.214 8.46446 171.642 9.96338 174.885 11.8084L173.326 14.8238Z" fill="#00125E"/>
<path d="M178.86 8.44836V5.73961H188.59V2.32812H191.453V5.73961H196.324V8.44836H191.466V17.6862C191.466 20.5355 189.101 20.5355 188.142 20.5355C187.682 20.5355 187.452 20.5355 185.214 20.4333L184.831 17.6223C186.467 17.7629 187.043 17.814 187.554 17.814C188.296 17.814 188.628 17.6607 188.628 16.9962V11.1571C186.278 14.2937 183.243 16.8542 179.755 18.6445L178.029 16.4085C181.813 14.4888 185.137 11.7732 187.771 8.44836H178.86Z" fill="#00125E"/>
<path d="M199.023 12.524C199.842 11.5785 203.255 7.41313 203.971 6.53151C205.083 5.2538 205.838 4.92159 206.746 4.92159C207.653 4.92159 208.497 5.22824 209.967 6.79983L219.032 16.3954L216.769 19.0275L207.922 9.15082C207.609 8.73483 207.154 8.44834 206.643 8.34586C206.209 8.34586 205.863 8.7675 205.467 9.30414C204.751 10.2241 201.811 14.2872 201.184 15.1049L199.023 12.524ZM218.508 4.92159C218.5 5.53507 218.311 6.13254 217.964 6.63859C217.617 7.14463 217.127 7.53657 216.557 7.76492C215.988 7.99327 215.363 8.0478 214.762 7.92162C214.161 7.79544 213.612 7.49421 213.182 7.05595C212.752 6.6177 212.462 6.06207 212.348 5.4592C212.234 4.85633 212.302 4.23325 212.542 3.66862C212.782 3.10399 213.184 2.62311 213.698 2.2867C214.211 1.95029 214.813 1.77342 215.426 1.77842C215.836 1.78176 216.24 1.8658 216.616 2.02573C216.993 2.18565 217.334 2.41832 217.62 2.71036C217.907 3.00241 218.132 3.34808 218.285 3.72754C218.437 4.10701 218.513 4.51279 218.508 4.92159ZM213.79 4.92159C213.787 5.24559 213.881 5.56304 214.06 5.83367C214.238 6.10429 214.492 6.3159 214.791 6.44165C215.09 6.5674 215.42 6.60161 215.738 6.53996C216.056 6.4783 216.349 6.32356 216.579 6.09535C216.809 5.86714 216.966 5.57576 217.03 5.25816C217.095 4.94057 217.063 4.61108 216.94 4.31149C216.816 4.0119 216.606 3.75572 216.337 3.57544C216.068 3.39516 215.751 3.29891 215.426 3.2989C214.995 3.29889 214.58 3.46944 214.274 3.77339C213.967 4.07734 213.793 4.49006 213.79 4.92159Z" fill="#00125E"/>
<path d="M226.868 17.1114C231.982 16.5236 235.562 14.2877 237.735 7.49023L240.292 9.01071C237.556 16.332 233.503 19.9351 223.812 20.2673V2.60938H226.843L226.868 17.1114Z" fill="#00125E"/>
<path d="M262.091 9.93066V12.9205H243.643V9.93066H262.091Z" fill="#00125E"/>
<path d="M272.409 12.6391C270.473 11.508 268.391 10.6481 266.221 10.0837L267.243 7.69434C269.472 8.15904 271.615 8.96498 273.598 10.0837L272.409 12.6391ZM267.435 17.1877C275.362 16.4339 279.108 13.9168 281.703 5.33057L284.158 7.14492C281.269 15.8334 277.024 19.1171 268.036 20.2798L267.435 17.1877ZM274.275 7.52823C272.253 6.42596 270.107 5.56811 267.883 4.97281L268.957 2.66016C271.205 3.11169 273.378 3.87731 275.413 4.93448L274.275 7.52823Z" fill="#00125E"/>
<path d="M288.518 14.3136V12.0009H297.889V9.07495H288.288V6.67285H300.6V19.9099H288.045V17.4184H297.889V14.3136H288.518Z" fill="#00125E"/>
<path d="M311.735 9.04901C309.678 7.67317 307.435 6.59757 305.074 5.85474L306.353 3.37598C308.766 4.08717 311.077 5.10487 313.231 6.40415L311.735 9.04901ZM305.483 17.1114C311.876 16.6003 317.834 14.4793 320.582 4.39815L323.139 6.16139C320.582 14.0832 316.159 19.1302 306.161 20.2162L305.483 17.1114Z" fill="#00125E"/>
<path d="M345.384 6.07141V8.76739H341.957V10.9395C341.957 18.2352 336.345 19.9601 331.729 20.6245L330.655 17.9414C337.47 17.2769 339.106 14.4404 339.106 10.9139V8.76739H332.918V14.0571H330.042V8.76739H326.73V6.07141H330.042V2.35328H332.918V6.07141H339.106V2.23828H342.008V6.07141H345.384Z" fill="#00125E"/>
<path d="M366.927 9.93066V12.9205H348.453V9.93066H366.927Z" fill="#00125E"/>
<path d="M374.432 8.92068C377.603 8.17677 380.667 7.0303 383.547 5.50919L384.826 8.16683C381.49 9.72917 377.991 10.9162 374.393 11.7061V15.7437C374.393 17.0214 374.675 17.1236 376.426 17.1236H382C383.604 17.13 385.205 16.9846 386.782 16.6892L386.999 19.6662C385.611 19.8695 384.209 19.9677 382.806 19.9601H375.953C373.613 19.9601 371.504 19.6023 371.504 16.5486V2.86433H374.432V8.92068ZM384.519 1.49718C385.42 2.73991 386.159 4.09242 386.718 5.52197L385.081 6.40359C384.566 4.95251 383.866 3.57396 382.998 2.30214L384.519 1.49718ZM387.638 0.564453C388.534 1.82021 389.265 3.18576 389.812 4.62757L388.175 5.50919C387.667 4.04949 386.971 2.66215 386.104 1.38219L387.638 0.564453Z" fill="#00125E"/>
<path d="M407.915 3.24805C407.327 6.48012 406.016 9.53762 404.079 12.192C406.545 14.0455 408.877 16.0692 411.06 18.2484L408.656 20.5738C406.693 18.3486 404.578 16.261 402.328 14.3258C399.985 16.9314 397.142 19.039 393.967 20.5227L392.33 18.1462C395.241 16.9766 397.844 15.1536 399.937 12.8181C401.799 10.851 403.231 8.51888 404.143 5.96957H393.519V3.24805H407.915Z" fill="#00125E"/>
<path d="M425.009 6.88999C424.678 7.7578 424.249 8.58511 423.73 9.35597L421.429 7.78439C421.506 7.68217 421.557 7.63106 421.595 7.56718H419.703V8.92155C420.47 10.4267 421.486 11.7918 422.708 12.9591L421.148 15.1312C420.572 14.295 420.088 13.3998 419.703 12.4608V21.5198H417.236V12.5758C416.757 14.2829 415.997 15.898 414.986 17.3544L413.988 13.9941C415.365 12.0601 416.387 9.89692 417.006 7.60551H414.449V5.07564H417.287V1.34473H419.754V5.07564H422.119V6.88999C422.959 5.34131 423.541 3.66718 423.845 1.93247L426.402 2.22635C426.275 2.82687 426.172 3.32518 425.891 4.3729H427.246V1.34473H429.803V4.33457H434.252V6.88999H429.803V9.44541H434.636V12.0008H430.596C431.668 14.0107 433.175 15.7566 435.007 17.1117L433.792 20.0376C432.091 18.5318 430.731 16.6805 429.803 14.6074V21.4687H427.246V14.6712C426.153 16.7614 424.617 18.5884 422.746 20.0249L421.161 17.5716C423.333 16.1575 425.138 14.2482 426.428 12.0008H422.068V9.44541H427.182V6.88999H425.009Z" fill="#00125E"/>
<path d="M437.922 18.1715C439.2 18.0692 440.364 17.9542 442.243 17.7498V12.0001H438.408V9.44469H448.636V12.0001H444.915V17.3665C446.731 17.111 448.137 16.8682 449.288 16.6765V19.232C446.283 19.8708 442.179 20.4075 438.241 20.8802L437.922 18.1715ZM455.667 4.53828H458.16V7.0937H451.909C452.203 14.4533 454.12 18.1715 455.105 18.1715C455.885 18.1715 456.383 16.306 456.69 15.105L458.48 17.2515C458.263 18.197 457.47 21.5446 455.348 21.5446C454.21 21.5446 449.71 20.5736 449.173 7.0937H438.024V4.53828H449.096C449.096 3.93775 449.096 1.76565 449.096 1.31845H451.857C451.857 1.66343 451.857 3.17113 451.857 4.53828H454.9C454.173 3.77933 453.358 3.11016 452.471 2.54505L454.376 1.15234C455.445 1.7376 456.409 2.4977 457.227 3.40112L455.667 4.53828Z" fill="#00125E"/>
<path d="M466.124 8.28205C465.006 8.95057 463.849 9.55215 462.659 10.0836L461.381 7.43876C466.597 5.39442 469.154 3.01788 470.33 1.29297H473.386C474.536 2.76234 476.646 5.1261 482.259 7.43876L480.878 10.0581C479.693 9.558 478.559 8.94619 477.49 8.23094V9.44477H466.188L466.124 8.28205ZM478.577 21.7363C478.346 21.3147 478.193 20.9825 477.72 20.2159C472.759 20.8042 467.77 21.1114 462.774 21.1358L462.429 18.3887H465.498C466.228 16.9561 466.848 15.4696 467.351 13.9423H462.237V11.3869H481.415V13.9423H470.484C469.665 15.8589 469.129 17.0855 468.464 18.3632C469.154 18.3632 472.734 18.2865 476.262 18.0054C475.789 17.3538 475.227 16.6511 474.089 15.335L476.365 14.1212C478.172 15.9868 479.759 18.0531 481.095 20.2798L478.577 21.7363ZM475.726 7.06822C474.253 6.0399 472.921 4.82438 471.762 3.4523C470.681 4.85043 469.386 6.07054 467.927 7.06822H475.726Z" fill="#00125E"/>
<path d="M490.941 21.5702H488.257V13.7762C487.49 14.4637 486.678 15.0997 485.827 15.68L484.945 12.7413C487.255 11.3446 489.152 9.36051 490.443 6.99156H485.265V4.43614H488.282V1.29297H490.941V4.47447H493.319V7.02989C492.772 8.21416 492.112 9.34364 491.351 10.403C492.173 11.4356 493.184 12.3027 494.329 12.9585L493.051 15.5139C492.262 14.8072 491.554 14.0143 490.941 13.1501V21.5702ZM497.833 1.29297H500.556V7.05544H505.005V9.77697H500.581V18.1971H505.414V20.9442H492.629V18.1971H497.833V9.77697H493.613V7.05544H497.833V1.29297Z" fill="#00125E"/>
</svg>
